<mxfile host="app.diagrams.net" modified="2023-12-11T07:14:59.646Z" agent="Mozilla/5.0 (Windows NT 10.0; Win64; x64) AppleWebKit/537.36 (KHTML, like Gecko) Chrome/119.0.0.0 Safari/537.36 Edg/119.0.0.0" version="22.1.7" etag="Ot-HIeSx9vntpWO9QmUb" type="github">
  <diagram name="第 1 页" id="JsUG5BqpIwOnsyko1ayS">
    <mxGraphModel>
      <root>
        <mxCell id="0" />
        <mxCell id="1" parent="0" />
      </root>
    </mxGraphModel>
  </diagram>
</mxfile>
